<svg xmlns="http://www.w3.org/2000/svg" width="30" height="30" viewBox="0 0 30 30">
    <defs>
        <style>
            .cls-1{fill:#0b4689}.cls-2{fill:#baef69}
        </style>
    </defs>
    <g id="circle-logo-s" transform="translate(-862 -226)">
        <rect id="Rectangle_25" width="30" height="30" class="cls-1" data-name="Rectangle 25" rx="15" transform="translate(862 226)"/>
        <g id="Group_439" data-name="Group 439" transform="translate(867.625 231)">
            <path id="Path_4586" d="M225.009 136.767v-6.949l-.61-1.236a1.586 1.586 0 0 0-1.716-.947 1.554 1.554 0 0 0-1.115 2.185z" class="cls-2" data-name="Path 4586" transform="translate(-221.137 -124.216)"/>
            <path id="Path_4587" d="M223.856 177.019l-2.8-6.079a1.666 1.666 0 0 0-.91.12 1.56 1.56 0 0 0-.373 2.532z" class="cls-2" data-name="Path 4587" transform="translate(-219.261 -161.536)"/>
            <path id="Path_4588" d="M263.042 119.777l-.077.088a6.167 6.167 0 0 1-1.03.923 6.61 6.61 0 0 1-2.163 1q-.212.056-.427.1a6.87 6.87 0 0 1-1.466.146h-.309a6.162 6.162 0 0 1-1.365-.224h-.014a6.542 6.542 0 0 1-1.745-.79 7.038 7.038 0 0 1-1.366-1.147q-.069-.074-.135-.15a7.155 7.155 0 0 1-1.412-2.468 6.666 6.666 0 0 1-.337-2.081v-10.62a1.547 1.547 0 0 1 1.792-1.571 1.568 1.568 0 0 1 1.289 1.57v5.173q.146-.074.289-.142a9 9 0 0 1 .251-.114 7.258 7.258 0 0 1 2.87-.651h.185a6.818 6.818 0 0 1 1.166.1 6.69 6.69 0 0 1 1.21.3 1.548 1.548 0 0 1 .358.178c.037.025.073.051.107.078a1.57 1.57 0 0 1-.94 2.782 1.427 1.427 0 0 1-.5-.076 3.618 3.618 0 0 0-1.46-.184 3.429 3.429 0 0 0-2.8 1.855 3.527 3.527 0 0 0-.159.352 3.388 3.388 0 0 0 1.433 4.209 3.435 3.435 0 0 0 .736.321h.015q.079.022.16.04a3.518 3.518 0 0 0 .488.074c.094.008.19.012.287.012a3.468 3.468 0 0 0 3.239-2.208 1.712 1.712 0 0 1 .181-.341 3.459 3.459 0 0 0 .056-1.609 3.509 3.509 0 0 0-.391-1.043 1.587 1.587 0 0 1 .113-1.79l.01-.012a1.566 1.566 0 0 1 2.083-.324 1.5 1.5 0 0 1 .437.456 6.559 6.559 0 0 1-.659 7.788z" class="cls-2" data-name="Path 4588" transform="translate(-246.785 -102.955)"/>
        </g>
    </g>
</svg>
