<svg xmlns="http://www.w3.org/2000/svg" width="100" height="100" viewBox="0 0 100 100">
    <defs>
        <style>
            .cls-1{fill:url(#linear-gradient)}.cls-2{opacity:.1}.cls-3{fill:#590bb2}.cls-4{fill:#5a90cd}.cls-5{fill:#cdff81}.cls-6{fill:#4dbaff}.cls-7{fill:#0b4689}.cls-8{fill:#fdd250}.cls-9{fill:#ffe783}.cls-10{fill:#ffc136}.cls-11{fill:#baef69}.cls-12{fill:#daf1ff}
        </style>
        <linearGradient id="linear-gradient" x1=".854" x2="-.008" y1=".146" y2="1.008" gradientUnits="objectBoundingBox">
            <stop offset="0" stop-color="#ceeaff"/>
            <stop offset="1" stop-color="#fff" stop-opacity="0"/>
        </linearGradient>
    </defs>
    <g id="headphones">
        <path id="Path_4630" d="M80.3 30.3a10.606 10.606 0 0 1-10.6-10.6 19.7 19.7 0 1 0-39.394 0A10.606 10.606 0 0 1 19.7 30.3a19.7 19.7 0 0 0 0 39.394A10.606 10.606 0 0 1 30.3 80.3a19.7 19.7 0 0 0 39.394 0A10.606 10.606 0 0 1 80.3 69.7a19.7 19.7 0 1 0 0-39.394z" class="cls-1" data-name="Path 4630"/>
        <g id="Group_481" data-name="Group 481" transform="translate(9.827 6.638)">
            <g id="Group_464" class="cls-2" data-name="Group 464" transform="translate(.977 5.273)">
                <circle id="Ellipse_6" cx="19.019" cy="19.019" r="19.019" class="cls-3" data-name="Ellipse 6" transform="translate(20.177 31.957)"/>
                <path id="Path_4631" d="M132.73 104.087h-.7v-1.781A5.306 5.306 0 0 0 126.724 97h-.512a32.223 32.223 0 0 0-7.182-26.436.915.915 0 0 0-1.309-.086l-.642.58a.96.96 0 0 0-.138-.2 30.426 30.426 0 0 0-44.906.046.977.977 0 0 0-.106.143l-.631-.57a.915.915 0 0 0-1.309.086 32.118 32.118 0 0 0-7.667 20.851A32.458 32.458 0 0 0 62.807 97H62.3a5.306 5.306 0 0 0-5.306 5.306v1.781h-.7a.977.977 0 0 0-.977.977v5.924a.977.977 0 0 0 .977.977h.7v11.893a5.306 5.306 0 0 0 5.306 5.306h6.6a1.953 1.953 0 0 0 1.953-1.953V98.953A1.953 1.953 0 0 0 68.9 97h-.519a26.743 26.743 0 0 1 5.707-22.809.912.912 0 0 0-.083-1.267l-.656-.592a.979.979 0 0 0 .125-.111 28.474 28.474 0 0 1 42.024-.044.977.977 0 0 0 .174.147l-.665.6a.912.912 0 0 0-.083 1.267A26.743 26.743 0 0 1 120.634 97h-.519a1.953 1.953 0 0 0-1.953 1.953v28.257a1.953 1.953 0 0 0 1.953 1.953h1.742v2.479a6.637 6.637 0 0 1-6.63 6.63h-8.674a.983.983 0 0 0-.182.018 2.279 2.279 0 0 0-2.1-1.386h-7.452a2.279 2.279 0 1 0 0 4.557h7.456a2.277 2.277 0 0 0 2.041-1.27.966.966 0 0 0 .238.033h8.674a8.592 8.592 0 0 0 8.583-8.583v-2.479h2.914a5.306 5.306 0 0 0 5.306-5.306v-11.891h.7a.977.977 0 0 0 .977-.977v-5.924a.977.977 0 0 0-.977-.977z" class="cls-3" data-name="Path 4631" transform="translate(-55.313 -60.988)"/>
            </g>
            <path id="Path_4632" d="M208.633 107.934h-.586v-.586a.977.977 0 1 0-1.953 0v.586h-.586a.977.977 0 0 0 0 1.953h.586v.586a.977.977 0 0 0 1.953 0v-.586h.586a.977.977 0 0 0 0-1.953z" class="cls-4" data-name="Path 4632" transform="translate(-174.41 -92.234)"/>
            <path id="Path_4633" d="M427.9 103.934h-.586v-.586a.977.977 0 0 0-1.953 0v.586h-.586a.977.977 0 0 0 0 1.953h.586v.586a.977.977 0 0 0 1.953 0v-.586h.586a.977.977 0 0 0 0-1.953z" class="cls-5" data-name="Path 4633" transform="translate(-350.854 -89.015)"/>
            <path id="Path_4634" d="M254.886 133.016a.973.973 0 0 1-.691-.286l-.872-.872-.872.872a.976.976 0 0 1-1.381-1.381l1.563-1.562a.976.976 0 0 1 1.381 0l1.563 1.563a.977.977 0 0 1-.691 1.667z" class="cls-6" data-name="Path 4634" transform="translate(-211.63 -110.846)"/>
            <path id="Path_4635" d="M404.081 51.5a.973.973 0 0 1-.691-.286l-.872-.872-.872.872a.976.976 0 1 1-1.381-1.381l1.563-1.562a.977.977 0 0 1 1.381 0l1.563 1.563a.977.977 0 0 1-.691 1.667z" class="cls-7" data-name="Path 4635" transform="translate(-331.685 -45.254)"/>
            <path id="Path_4636" d="M120.988 428.861a.974.974 0 0 1-.691-.286l-.872-.872-.872.872a.976.976 0 0 1-1.381-1.381l1.563-1.562a.976.976 0 0 1 1.381 0l1.563 1.563a.976.976 0 0 1-.691 1.667z" class="cls-8" data-name="Path 4636" transform="translate(-103.884 -348.908)"/>
            <g id="Group_480" data-name="Group 480">
                <g id="Group_478" data-name="Group 478" transform="translate(.977 9.254)">
                    <g id="Group_467" data-name="Group 467" transform="translate(20.177 22.703)">
                        <circle id="Ellipse_7" cx="19.019" cy="19.019" r="19.019" class="cls-9" data-name="Ellipse 7"/>
                        <circle id="Ellipse_8" cx="14.965" cy="14.965" r="14.965" class="cls-10" data-name="Ellipse 8" transform="translate(4.055 4.055)"/>
                    </g>
                    <g id="Group_474" data-name="Group 474" transform="translate(0 26.758)">
                        <g id="Group_470" data-name="Group 470">
                            <g id="Group_468" data-name="Group 468" transform="translate(1.676)">
                                <path id="Path_4641" d="M75.81 250.533H69.2a5.306 5.306 0 0 1-5.306-5.306v-21.551a5.306 5.306 0 0 1 5.306-5.306h6.61a1.953 1.953 0 0 1 1.953 1.953v28.257a1.953 1.953 0 0 1-1.953 1.953z" class="cls-11" data-name="Path 4641" transform="translate(-63.896 -218.37)"/>
                            </g>
                            <g id="Group_469" data-name="Group 469" transform="translate(10.872)">
                                <path id="Path_4642" d="M113.7 218.37h-2.72v32.163h2.72a1.953 1.953 0 0 0 1.953-1.953v-28.257a1.953 1.953 0 0 0-1.953-1.953z" class="cls-5" data-name="Path 4642" transform="translate(-110.98 -218.37)"/>
                            </g>
                            <path id="Path_4643" d="M58.829 262.532H56.29a.977.977 0 0 1-.977-.977v-5.924a.977.977 0 0 1 .977-.977h2.539a.977.977 0 0 1 .977.977v5.924a.976.976 0 0 1-.977.977z" class="cls-11" data-name="Path 4643" transform="translate(-55.313 -247.568)"/>
                        </g>
                        <g id="Group_473" data-name="Group 473" transform="translate(62.849)">
                            <g id="Group_471" data-name="Group 471">
                                <path id="Path_4644" d="M379.055 250.533h6.609a5.306 5.306 0 0 0 5.306-5.306v-21.551a5.306 5.306 0 0 0-5.306-5.306h-6.609a1.953 1.953 0 0 0-1.953 1.953v28.257a1.953 1.953 0 0 0 1.953 1.953z" class="cls-11" data-name="Path 4644" transform="translate(-377.102 -218.37)"/>
                            </g>
                            <g id="Group_472" data-name="Group 472">
                                <path id="Path_4645" d="M379.055 218.37h2.718v32.163h-2.718a1.953 1.953 0 0 1-1.953-1.953v-28.257a1.953 1.953 0 0 1 1.953-1.953z" class="cls-5" data-name="Path 4645" transform="translate(-377.102 -218.37)"/>
                            </g>
                            <path id="Path_4646" d="M434.664 262.532h2.536a.977.977 0 0 0 .977-.977v-5.924a.977.977 0 0 0-.977-.977h-2.539a.977.977 0 0 0-.977.977v5.924a.976.976 0 0 0 .98.977z" class="cls-11" data-name="Path 4646" transform="translate(-422.635 -247.568)"/>
                        </g>
                    </g>
                    <g id="Group_477" data-name="Group 477" transform="translate(7.009)">
                        <g id="Group_475" data-name="Group 475" transform="translate(52.388)">
                            <path id="Path_4647" d="M365.351 108.128h5.578a32.223 32.223 0 0 0-7.182-26.436.915.915 0 0 0-1.309-.086l-2.711 2.447a.912.912 0 0 0-.083 1.267 26.746 26.746 0 0 1 5.707 22.809z" class="cls-12" data-name="Path 4647" transform="translate(-359.427 -81.37)"/>
                        </g>
                        <g id="Group_476" data-name="Group 476">
                            <path id="Path_4648" d="M97.261 108.128a26.743 26.743 0 0 1 5.707-22.809.912.912 0 0 0-.083-1.267l-2.711-2.447a.915.915 0 0 0-1.309.086 32.118 32.118 0 0 0-7.665 20.851 32.455 32.455 0 0 0 .485 5.586z" class="cls-12" data-name="Path 4648" transform="translate(-91.198 -81.37)"/>
                        </g>
                    </g>
                </g>
                <path id="Path_4649" d="M258.437 427.235h7.456a2.279 2.279 0 1 0 0-4.557h-7.456a2.279 2.279 0 1 0 0 4.557z" class="cls-10" data-name="Path 4649" transform="translate(-215.954 -346.762)"/>
                <g id="Group_479" data-name="Group 479">
                    <path id="Path_4651" d="M128.983 76.133v-.826a6.291 6.291 0 0 0-5.659-6.252 33.157 33.157 0 0 0-7.573-26.124 1.891 1.891 0 0 0-2.707-.178l-.63.569a30.425 30.425 0 0 0-43.855 0l-.63-.569a1.892 1.892 0 0 0-2.707.178 33.157 33.157 0 0 0-7.573 26.124 6.291 6.291 0 0 0-5.659 6.252v.826a1.955 1.955 0 0 0-1.676 1.931v5.924a1.955 1.955 0 0 0 1.676 1.931v10.938a6.29 6.29 0 0 0 6.282 6.282h6.608a2.933 2.933 0 0 0 2.93-2.93V84.44a.977.977 0 0 0-1.953 0v15.77a.978.978 0 0 1-.977.977h-6.608a4.334 4.334 0 0 1-4.329-4.329V85.941h.863a1.955 1.955 0 0 0 1.953-1.953v-5.924a1.955 1.955 0 0 0-1.953-1.953h-.863v-.8a4.334 4.334 0 0 1 4.329-4.329h6.608a.978.978 0 0 1 .977.977v6.51a.977.977 0 0 0 1.953 0v-6.51a2.933 2.933 0 0 0-2.642-2.915 25.747 25.747 0 0 1 5.646-21.216 1.882 1.882 0 0 0-.174-2.628l-.63-.569a28.472 28.472 0 0 1 40.954 0l-.63.569a1.882 1.882 0 0 0-.175 2.622 25.748 25.748 0 0 1 5.641 21.216 2.933 2.933 0 0 0-2.642 2.915v6.51a.977.977 0 0 0 1.953 0v-6.51a.978.978 0 0 1 .977-.977h6.612a4.334 4.334 0 0 1 4.329 4.329v.8h-.863a1.955 1.955 0 0 0-1.953 1.953v5.924a1.955 1.955 0 0 0 1.953 1.953h.863v10.922a4.334 4.334 0 0 1-4.329 4.329h-6.609a.978.978 0 0 1-.977-.977V84.44a.977.977 0 0 0-1.953 0v15.77a2.933 2.933 0 0 0 2.93 2.93h1.742v1.5a6.637 6.637 0 0 1-6.63 6.629h-7.83a3.259 3.259 0 0 0-3.123-2.344H92.8a3.255 3.255 0 1 0 0 6.511h7.456a3.259 3.259 0 0 0 3.081-2.214h7.863a8.592 8.592 0 0 0 8.583-8.583v-1.5h2.917a6.29 6.29 0 0 0 6.283-6.282V85.919a1.955 1.955 0 0 0 1.676-1.931v-5.924a1.955 1.955 0 0 0-1.676-1.931zm-74.176 7.855h-2.54v-5.924h2.539zM62.8 64.414a27.905 27.905 0 0 0 .384 4.609h-3.569a31.24 31.24 0 0 1 7.053-24.778l2.616 2.362A27.706 27.706 0 0 0 62.8 64.414zm48.891-17.807l2.616-2.362a31.22 31.22 0 0 1 7.393 20.17 31.545 31.545 0 0 1-.34 4.609h-3.567a27.713 27.713 0 0 0-6.1-22.417zm-11.436 66.878H92.8a1.3 1.3 0 0 1 0-2.6h7.456a1.3 1.3 0 1 1 0 2.6zm25.915-35.421h2.539v5.924h-2.539z" class="cls-7" data-name="Path 4651" transform="translate(-50.313 -33.988)"/>
                </g>
            </g>
        </g>
    </g>
</svg>
