<svg xmlns="http://www.w3.org/2000/svg" width="66" height="62.695" viewBox="0 0 66 62.695">
    <defs>
        <style>
            .cls-1,.cls-2{fill:#fff}.cls-2{font-size:5px;font-family:SegoeUI,Segoe UI}.cls-3{fill:#baef69}
        </style>
    </defs>
    <g id="Logo" transform="translate(13135.462 -1605)">
        <g id="Group_436" data-name="Group 436" transform="translate(-13135.462 1647.621)">
            <g id="Group_435" data-name="Group 435">
                <g id="Group_434" data-name="Group 434">
                    <path id="Path_4580" d="M179.539 247.385v-8.407h1.311v5.033a4.875 4.875 0 0 1 3.67-1.765 4.754 4.754 0 0 1 3.705 1.486 5.235 5.235 0 0 1 .122 7.358 4.962 4.962 0 0 1-3.53 1.591 5.193 5.193 0 0 1-5.278-5.226zm7.864 2.744a3.849 3.849 0 0 0 1.049-2.761 3.759 3.759 0 0 0-1.153-2.692 3.617 3.617 0 0 0-2.692-1.136 3.464 3.464 0 0 0-2.6 1.119 4.029 4.029 0 0 0 0 5.575 3.523 3.523 0 0 0 2.8 1.136 3.625 3.625 0 0 0 2.593-1.242z" class="cls-1" data-name="Path 4580" transform="translate(-179.538 -238.978)"/>
                    <path id="Path_4581" d="M226.027 256.249a5.054 5.054 0 0 1-1.888 2.552 5.133 5.133 0 0 1-2.954.961 4.949 4.949 0 0 1-3.618-1.485 5.21 5.21 0 0 1-.035-7.5 4.882 4.882 0 0 1 3.862-1.5 5.141 5.141 0 0 1 3.461 1.643 4.76 4.76 0 0 1 1.416 3.356v.717h-8.948a3.669 3.669 0 0 0 1.276 2.482 3.818 3.818 0 0 0 2.639.961 3.531 3.531 0 0 0 3.373-2.185zm-1.066-2.482a3.9 3.9 0 0 0-1.311-2.254 3.879 3.879 0 0 0-6.327 2.254z" class="cls-1" data-name="Path 4581" transform="translate(-204.547 -246.042)"/>
                    <path id="Path_4582" d="M256.4 263.629h-1.433l1.5-3.792-3.81-9.647h1.451l3.181 7.9 3.356-7.9h1.4z" class="cls-1" data-name="Path 4582" transform="translate(-229.751 -246.676)"/>
                    <path id="Path_4583" d="M294.8 258.348a4.815 4.815 0 0 1-3.7 1.486 4.877 4.877 0 0 1-3.53-1.573 5.069 5.069 0 0 1-1.433-3.618 5.123 5.123 0 0 1 1.555-3.74 4.77 4.77 0 0 1 3.705-1.5 4.913 4.913 0 0 1 3.53 1.608 5.214 5.214 0 0 1-.123 7.34zm-3.688.175a3.425 3.425 0 0 0 2.8-1.136 3.885 3.885 0 0 0 1.136-2.866 3.968 3.968 0 0 0-1.136-2.692 3.429 3.429 0 0 0-2.587-1.118 3.6 3.6 0 0 0-2.709 1.118 3.752 3.752 0 0 0-1.136 2.709 3.861 3.861 0 0 0 1.031 2.761 3.542 3.542 0 0 0 2.599 1.224z" class="cls-1" data-name="Path 4583" transform="translate(-252.73 -246.132)"/>
                    <path id="Path_4584" d="M331.823 259.653h-1.346v-5.82a2.963 2.963 0 0 0-.926-2.167 2.9 2.9 0 0 0-2.132-.909 3.1 3.1 0 0 0-3.076 3.076v5.82H323v-5.68a4.4 4.4 0 0 1 1.258-3.215 4.493 4.493 0 0 1 6.309 0 4.4 4.4 0 0 1 1.258 3.215z" class="cls-1" data-name="Path 4584" transform="translate(-278.046 -246.178)"/>
                    <path id="Path_4585" d="M366.48 247.677a4.862 4.862 0 0 1-1.538 3.722 4.939 4.939 0 0 1-3.74 1.486 4.876 4.876 0 0 1-3.53-1.573 5.069 5.069 0 0 1-1.433-3.617 5.122 5.122 0 0 1 1.555-3.74 4.769 4.769 0 0 1 3.705-1.5 4.933 4.933 0 0 1 3.67 1.765v-5.02h1.311zm-5.26 3.9a3.424 3.424 0 0 0 2.8-1.136 3.8 3.8 0 0 0 1.119-2.866 3.87 3.87 0 0 0-1.119-2.691 3.438 3.438 0 0 0-2.6-1.119 3.627 3.627 0 0 0-2.709 1.119 3.751 3.751 0 0 0-1.136 2.709 3.877 3.877 0 0 0 1.049 2.761 3.542 3.542 0 0 0 2.596 1.221z" class="cls-1" data-name="Path 4585" transform="translate(-300.872 -239.131)"/>
                </g>
            </g>
        </g>
        <text id="Solution" class="cls-2" transform="translate(-13069.462 1666.695)">
            <tspan x="-18.291" y="0">Solution</tspan>
        </text>
        <g id="Group_437" data-name="Group 437" transform="translate(-13123.017 1605)">
            <path id="Path_4586" d="M229.541 148.372l-.007-15.768-1.384-2.8a3.6 3.6 0 0 0-3.894-2.149s-3.889.79-2.529 4.957z" class="cls-3" data-name="Path 4586" transform="translate(-220.756 -119.893)"/>
            <path id="Path_4587" d="M229.688 184.757l-6.345-13.794a3.78 3.78 0 0 0-2.065.271s-3.909 2.235-.846 5.745z" class="cls-3" data-name="Path 4587" transform="translate(-219.261 -149.625)"/>
            <path id="Path_4588" d="M278.076 141.126a10.88 10.88 0 0 1-.175.2 13.989 13.989 0 0 1-2.338 2.094 15 15 0 0 1-4.908 2.277q-.481.126-.969.222a15.592 15.592 0 0 1-3.326.332c-.144 0-.289 0-.435-.008l-.266-.011a13.981 13.981 0 0 1-3.1-.507l-.032-.009a14.846 14.846 0 0 1-3.96-1.793 15.975 15.975 0 0 1-3.1-2.6q-.156-.168-.306-.34a16.233 16.233 0 0 1-3.2-5.6 15.128 15.128 0 0 1-.765-4.722v-24.1A3.509 3.509 0 0 1 255.26 103a3.557 3.557 0 0 1 2.925 3.563V118.3q.331-.168.655-.321c.192-.09.381-.177.571-.26a16.47 16.47 0 0 1 6.513-1.476h.42a15.476 15.476 0 0 1 2.646.227 15.182 15.182 0 0 1 2.746.676 3.513 3.513 0 0 1 .812.4c.084.056.164.116.242.178a3.562 3.562 0 0 1-2.134 6.312 3.238 3.238 0 0 1-1.142-.173 8.209 8.209 0 0 0-3.314-.419 7.781 7.781 0 0 0-6.354 4.21 7.967 7.967 0 0 0-.361.8 7.687 7.687 0 0 0 3.252 9.546h.005a7.79 7.79 0 0 0 1.67.728l.035.01c.12.033.241.064.364.091h.008a7.985 7.985 0 0 0 1.107.167q.321.026.651.026a7.868 7.868 0 0 0 7.35-5.011 3.876 3.876 0 0 1 .41-.775 7.847 7.847 0 0 0 .126-3.652 7.959 7.959 0 0 0-.887-2.366 3.6 3.6 0 0 1 .257-4.062l.023-.028a3.553 3.553 0 0 1 4.727-.736 3.4 3.4 0 0 1 .992 1.036 14.883 14.883 0 0 1-1.499 17.698z" class="cls-3" data-name="Path 4588" transform="translate(-241.189 -102.955)"/>
        </g>
    </g>
</svg>
